[Header]
FileType HTR
DataType HTRS
FileVersion 1
NumSegments 36
NumFrames 4
DataFrameRate 120
EulerRotationOrder ZYX
CalibrationUnits mm
RotationUnits Degrees
GlobalAxisofGravity Y
BoneLengthAxis Y
ScaleFactor 1.0
[SegmentNames&Hierarchy]
Hips	GLOBAL
Spine	Hips
Spine1	Spine
Spine2	Spine1
Spine3	Spine2
Neck	Spine3
Head	Neck
HeadEnd	Head
RightShoulder	Spine3
RightArm	RightShoulder
RightForeArm	RightArm
RightForeArmRoll	RightForeArm
RightHand	RightForeArmRoll
RightHandEnd	RightHand
R_FingersEnd	RightHandEnd
RightHandThumb1	RightHand
RightHandThumb2	RightHandThumb1
LeftShoulder	Spine3
LeftArm	LeftShoulder
LeftForeArm	LeftArm
LeftForeArmRoll	LeftForeArm
LeftHand	LeftForeArmRoll
LeftHandEnd	LeftHand
L_FingersEnd	LeftHandEnd
LeftHandThumb1	LeftHand
LeftHandThumb2	LeftHandThumb1
RightUpLeg	Hips
RightLeg	RightUpLeg
RightFoot	RightLeg
RightToeBase	RightFoot
RightToeBaseEnd	RightToeBase
LeftUpLeg	Hips
LeftLeg	LeftUpLeg
LeftFoot	LeftLeg
LeftToeBase	LeftFoot
LeftToeBaseEnd	LeftToeBase
[BasePosition]
Hips	0	0	0	0	0	0	1
Spine	0	0	0	-10	-0	0	1
Spine1	0	0	0	5	0	0	1
Spine2	0	0	0	5	0	0	1
Spine3	0	0	0	0	0	0	1
Neck	0	0	0	10	0	0	1
Head	0	0	0	-10	-0	0	1
HeadEnd	0	0	0	0	0	0	1
RightShoulder	0	0	0	-180	-0	-180	1
RightArm	0	0	0	0	0	0	1
RightForeArm	0	0	0	0	0	0	1
RightForeArmRoll	0	0	0	0	0	0	1
RightHand	0	0	0	0	0	0	1
RightHandEnd	0	0	0	-90	-0	0	1
R_FingersEnd	0	0	0	0	0	0	1
RightHandThumb1	0	0	0	170	-0	-15	1
RightHandThumb2	0	0	0	0	0	0	1
LeftShoulder	0	0	0	0	0	0	1
LeftArm	0	0	0	0	0	0	1
LeftForeArm	0	0	0	0	0	0	1
LeftForeArmRoll	0	0	0	0	0	0	1
LeftHand	0	0	0	0	0	0	1
LeftHandEnd	0	0	0	90	0	0	1
L_FingersEnd	0	0	0	0	0	0	1
LeftHandThumb1	0	0	0	170	-0	-15	1
LeftHandThumb2	0	0	0	0	0	0	1
RightUpLeg	0	0	0	-0	90	0	1
RightLeg	0	0	0	0	0	0	1
RightFoot	0	0	0	0	-0	-70	1
RightToeBase	0	0	0	0	-0	-20	1
RightToeBaseEnd	0	0	0	0	0	0	1
LeftUpLeg	0	0	0	-0	90	0	1
LeftLeg	0	0	0	0	0	0	1
LeftFoot	0	0	0	0	-0	-70	1
LeftToeBase	0	0	0	0	-0	-20	1
LeftToeBaseEnd	0	0	0	0	0	0	1
[Hips]
38	-5.364497185	970.5462036	-19.38715744	-89.18724823	-0.08619535714	0.296515137	1.0
39	-5.316915512	970.5603638	-19.35587311	-89.17263794	-0.07961565256	0.3036854863	1.0
40	-5.275242329	970.5744629	-19.33534241	-89.15578461	-0.07194843143	0.3108212948	1.0
41	-5.242995262	970.5876465	-19.32400513	-89.13773346	-0.0625930354	0.3165360093	1.0
[Spine]
38	0	44.87670517	67.31505585	-0.2777136266	0.4037334919	0.07550537586	1.0
39	0	44.87670517	67.31505585	-0.2765130401	0.4070602059	0.07608279586	1.0
40	0	44.87670517	67.31505585	-0.2761381269	0.4104067087	0.07651754469	1.0
41	0	44.87670517	67.31505585	-0.2764257193	0.4130236208	0.07670865953	1.0
[Spine1]
38	0	0	89.75341034	-0.678060174	0.02543745935	-0.003358080052	1.0
39	0	0	89.75341034	-0.673543334	0.02351843193	-0.003511040239	1.0
40	0	0	89.75341034	-0.6703065634	0.02178660408	-0.003689151024	1.0
41	0	0	89.75341034	-0.6688677669	0.02117227577	-0.00377302547	1.0
[Spine2]
38	0	0	89.75341034	1.422359943	0.4895790219	0.3295632601	1.0
39	0	0	89.75341034	1.416903853	0.4965071082	0.333754003	1.0
40	0	0	89.75341034	1.412284851	0.503241539	0.3373248875	1.0
41	0	0	89.75341034	1.409289241	0.5074073672	0.3380024135	1.0
[Spine3]
38	0	0	89.75341034	0.1318983436	-0.4029304683	-0.08057816327	1.0
39	0	0	89.75341034	0.1299328059	-0.4023867548	-0.08321396261	1.0
40	0	0	89.75341034	0.1283313185	-0.401345402	-0.08606472611	1.0
41	0	0	89.75341034	0.1273718178	-0.3998916447	-0.08789945394	1.0
[Neck]
38	0	-33.65752792	235.6027069	-1.226571321	0.1163647175	-0.1230100021	1.0
39	0	-33.65752792	235.6027069	-1.237934589	0.1111823246	-0.1152824759	1.0
40	0	-33.65752792	235.6027069	-1.250842929	0.1072464138	-0.1074254811	1.0
41	0	-33.65752792	235.6027069	-1.260582328	0.1044712216	-0.1039802358	1.0
[Head]
38	0	0	123.4109421	-1.044864655	-0.193111375	-0.9985020757	1.0
39	0	0	123.4109421	-1.031770587	-0.1973131001	-1.002044439	1.0
40	0	0	123.4109421	-1.019708633	-0.2049971968	-1.004745603	1.0
41	0	0	123.4109421	-1.014229655	-0.2145644277	-1.003864765	1.0
[HeadEnd]
38	0	0	145.2883301	0	0	0	1.0
39	0	0	145.2883301	0	0	0	1.0
40	0	0	145.2883301	0	0	0	1.0
41	0	0	145.2883301	0	0	0	1.0
[RightShoulder]
38	-30.74827576	-51.24713135	166.0407104	-4.492015362	-5.898153305	0.8671256304	1.0
39	-30.74827576	-51.24713135	166.0407104	-4.479807377	-5.903625488	0.8722290993	1.0
40	-30.74827576	-51.24713135	166.0407104	-4.467716217	-5.909714222	0.8759543896	1.0
41	-30.74827576	-51.24713135	166.0407104	-4.457530975	-5.914669514	0.875464797	1.0
[RightArm]
38	152.7164459	0	0	-24.57183838	-69.05747986	4.275631905	1.0
39	152.7164459	0	0	-24.57288361	-69.0607605	4.26268816	1.0
40	152.7164459	0	0	-24.57532883	-69.06490326	4.250652313	1.0
41	152.7164459	0	0	-24.57782745	-69.0718689	4.24466753	1.0
[RightForeArm]
38	297.8946228	0	0	0	0	-31.26682281	1.0
39	297.8946228	0	0	0	0	-31.25664902	1.0
40	297.8946228	0	0	0	0	-31.2473278	1.0
41	297.8946228	0	0	0	0	-31.24280357	1.0
[RightForeArmRoll]
38	122.9768982	0	0	4.534339905	0	0	1.0
39	122.9768982	0	0	4.593969822	0	0	1.0
40	122.9768982	0	0	4.649529934	0	0	1.0
41	122.9768982	0	0	4.673178673	0	0	1.0
[RightHand]
38	127.1009369	0	0	4.987459306e-006	7.926815987	-3.134119987	1.0
39	127.1009369	0	0	4.152234396e-006	7.932230949	-3.153159857	1.0
40	127.1009369	0	0	2.171018878e-006	7.940092087	-3.166940451	1.0
41	127.1009369	0	0	0	7.949099064	-3.166594028	1.0
[RightHandEnd]
38	72.05677795	0	0	0	0	0	1.0
39	72.05677795	0	0	0	0	0	1.0
40	72.05677795	0	0	0	0	0	1.0
41	72.05677795	0	0	0	0	0	1.0
[R_FingersEnd]
38	72.05677795	0	0	0	0	0	1.0
39	72.05677795	0	0	0	0	0	1.0
40	72.05677795	0	0	0	0	0	1.0
41	72.05677795	0	0	0	0	0	1.0
[RightHandThumb1]
38	28.82271004	-48.03784943	19.2151413	0	0	0	1.0
39	28.82271004	-48.03784943	19.2151413	0	0	0	1.0
40	28.82271004	-48.03784943	19.2151413	0	0	0	1.0
41	28.82271004	-48.03784943	19.2151413	0	0	0	1.0
[RightHandThumb2]
38	72.05677795	0	0	0	0	0	1.0
39	72.05677795	0	0	0	0	0	1.0
40	72.05677795	0	0	0	0	0	1.0
41	72.05677795	0	0	0	0	0	1.0
[LeftShoulder]
38	30.74827576	-51.24713135	166.0407104	5.444186211	6.12571764	3.067615509	1.0
39	30.74827576	-51.24713135	166.0407104	5.429682732	6.108272552	3.06334734	1.0
40	30.74827576	-51.24713135	166.0407104	5.415271282	6.089342594	3.059194088	1.0
41	30.74827576	-51.24713135	166.0407104	5.403772831	6.073928833	3.055863857	1.0
[LeftArm]
38	152.7164459	0	0	3.972434521	68.74395752	-34.36988068	1.0
39	152.7164459	0	0	3.892633438	68.7652359	-34.39235306	1.0
40	152.7164459	0	0	3.81477952	68.78582764	-34.41690063	1.0
41	152.7164459	0	0	3.753234863	68.80050659	-34.44265747	1.0
[LeftForeArm]
38	297.8946228	0	0	0	0	-19.25926971	1.0
39	297.8946228	0	0	0	0	-19.264925	1.0
40	297.8946228	0	0	0	0	-19.27162552	1.0
41	297.8946228	0	0	0	0	-19.27853584	1.0
[LeftForeArmRoll]
38	122.9768982	0	0	-5.064128876	0	0	1.0
39	122.9768982	0	0	-5.224677563	0	0	1.0
40	122.9768982	0	0	-5.345849037	0	0	1.0
41	122.9768982	0	0	-5.366858959	0	0	1.0
[LeftHand]
38	127.1009369	0	0	8.728747343e-005	-21.22964859	0.7789820433	1.0
39	127.1009369	0	0	4.873878424e-005	-21.19300461	0.6879857183	1.0
40	127.1009369	0	0	1.129011616e-005	-21.14718246	0.6211199164	1.0
41	127.1009369	0	0	0	-21.08643532	0.6175577641	1.0
[LeftHandEnd]
38	72.05677795	0	0	0	0	0	1.0
39	72.05677795	0	0	0	0	0	1.0
40	72.05677795	0	0	0	0	0	1.0
41	72.05677795	0	0	0	0	0	1.0
[L_FingersEnd]
38	72.05677795	0	0	0	0	0	1.0
39	72.05677795	0	0	0	0	0	1.0
40	72.05677795	0	0	0	0	0	1.0
41	72.05677795	0	0	0	0	0	1.0
[LeftHandThumb1]
38	28.82271004	-48.03784943	-19.2151413	0	0	0	1.0
39	28.82271004	-48.03784943	-19.2151413	0	0	0	1.0
40	28.82271004	-48.03784943	-19.2151413	0	0	0	1.0
41	28.82271004	-48.03784943	-19.2151413	0	0	0	1.0
[LeftHandThumb2]
38	72.05677795	0	0	0	0	0	1.0
39	72.05677795	0	0	0	0	0	1.0
40	72.05677795	0	0	0	0	0	1.0
41	72.05677795	0	0	0	0	0	1.0
[RightUpLeg]
38	-91.21989441	0	-26.64850616	9.498962402	4.491007805	-0.690713346	1.0
39	-91.21989441	0	-26.64850616	9.479893684	4.502334595	-0.6947367191	1.0
40	-91.21989441	0	-26.64850616	9.463386536	4.513783932	-0.701800108	1.0
41	-91.21989441	0	-26.64850616	9.455085754	4.522908211	-0.711440146	1.0
[RightLeg]
38	402.8824463	0	0	0	0	15.01138592	1.0
39	402.8824463	0	0	0	0	14.98935509	1.0
40	402.8824463	0	0	0	0	14.96748829	1.0
41	402.8824463	0	0	0	0	14.94946766	1.0
[RightFoot]
38	435.9781189	0	0	4.437449932	-2.0105443	-15.09765148	1.0
39	435.9781189	0	0	4.436479092	-2.010831356	-15.08834076	1.0
40	435.9781189	0	0	4.43649435	-2.013106823	-15.07844067	1.0
41	435.9781189	0	0	4.439505577	-2.014937162	-15.07029438	1.0
[RightToeBase]
38	183.1846619	0	0	0	0	0.7385725379	1.0
39	183.1846619	0	0	0	0	0.7226996422	1.0
40	183.1846619	0	0	0	0	0.7038244009	1.0
41	183.1846619	0	0	0	0	0.6892657876	1.0
[RightToeBaseEnd]
38	73.79586792	0	0	0	0	0	1.0
39	73.79586792	0	0	0	0	0	1.0
40	73.79586792	0	0	0	0	0	1.0
41	73.79586792	0	0	0	0	0	1.0
[LeftUpLeg]
38	91.21989441	0	-26.64850616	0.9145281315	-4.916164875	0.7199985385	1.0
39	91.21989441	0	-26.64850616	0.9174116254	-4.905595779	0.7010650635	1.0
40	91.21989441	0	-26.64850616	0.9163123369	-4.895759583	0.6754664183	1.0
41	91.21989441	0	-26.64850616	0.9071588516	-4.888998985	0.6438879371	1.0
[LeftLeg]
38	402.8824463	0	0	0	0	11.05910587	1.0
39	402.8824463	0	0	0	0	11.06532764	1.0
40	402.8824463	0	0	0	0	11.07763004	1.0
41	402.8824463	0	0	0	0	11.09734154	1.0
[LeftFoot]
38	435.9781189	0	0	-8.00660038	-0.6181473732	-12.67161274	1.0
39	435.9781189	0	0	-7.999851704	-0.6151683331	-12.65999222	1.0
40	435.9781189	0	0	-7.991831779	-0.6072083116	-12.6502676	1.0
41	435.9781189	0	0	-7.983140469	-0.5895105004	-12.64572525	1.0
[LeftToeBase]
38	183.1846619	0	0	0	0	0.9199440479	1.0
39	183.1846619	0	0	0	0	0.9095227718	1.0
40	183.1846619	0	0	0	0	0.8990706801	1.0
41	183.1846619	0	0	0	0	0.8944638371	1.0
[LeftToeBaseEnd]
38	73.79586792	0	0	0	0	0	1.0
39	73.79586792	0	0	0	0	0	1.0
40	73.79586792	0	0	0	0	0	1.0
41	73.79586792	0	0	0	0	0	1.0
[EndOfFile]
